<svg class="_3NZUKOdsA_2X9TrZGSNQyP" viewBox="0 0 20 20" xmlns="http://www.w3.org/2000/svg"><rect width="20" height="20" rx="10" fill="url(#gradient)"></rect><path d="M12.121 13.471c-1.007.146-1.73.445-2.121.643v-3.068a1.2 1.2 0 00-1.2-1.2H6.53c.027-.292.046-.61.046-.978 0-1.015-.294-1.78-.53-2.233l.834-.834H10v2.845a1.2 1.2 0 001.2 1.2h2.27c.036.402.086.749.132 1.045.058.38.109.706.109 1.047 0 .627-.497 1.375-1.59 1.533zm3.017-7.35l-1.345-1.345a.6.6 0 00-.425-.175H6.632a.6.6 0 00-.425.175L4.862 6.122a.6.6 0 00-.042.802c.006.006.556.72.556 1.944 0 .783-.087 1.344-.164 1.84-.064.41-.124.797-.124 1.23 0 1.163.9 2.471 2.619 2.72 1.251.183 1.952.638 1.956.64a.61.61 0 00.67.002c.007-.004.709-.46 1.96-.642 1.719-.249 2.618-1.557 2.618-2.72 0-.433-.06-.82-.124-1.23a11.026 11.026 0 01-.163-1.84c0-1.22.536-1.919.556-1.944a.6.6 0 00-.042-.802z" fill="#fff"></path><defs><linearGradient id="gradient" x1="0" y1="20" x2="20.021" y2="19.979" gradientUnits="userSpaceOnUse"><stop stop-color="#EC0623"></stop><stop offset="1" stop-color="#FF8717"></stop></linearGradient></defs></svg>